#!OML:ASF X:\für Bonn\!DataBase\2005_08_10_Bjorn_Final\c3d\bjorn.ASF
:FULLY-SPECIFIED
:DEGREES
77
root -16.4625 17.6987 20.0121 183.476 43.0792 -531.54
lowerback 6.77553 -0.679112 -0.296864
upperback 18.4792 1.79998 0.410418
thorax 16.9253 1.83022 1.08772
lowerneck 8.5678 1.71439 -1.58295
upperneck -16.9975 2.45139 0.0825885
head -6.6038 1.43003 0.0703711
rclavicle 5.04913e-014 -4.13472e-014
rhumerus -13.2622 1.0281 -91.222
rradius 56.0899
rwrist -1.55419
rhand -19.1628 19.4597
rfingers 7.12502
rthumb 7.14803 -10.3996
lclavicle 5.04913e-014 -4.13472e-014
lhumerus -12.5908 -2.69474 81.9539
lradius 44.6387
lwrist -18.1782
lhand -42.2344 -15.5078
lfingers 7.12502
lthumb -15.121 13.9198
rfemur -3.89487 -4.04485 23.9994
rtibia 47.1793
rfoot -34.0625 10.3127
rtoes -20.1917
lfemur -36.3305 10.4141 -1.04638
ltibia 40.4525
lfoot 4.56567 3.95267
ltoes -22.4871
78
root -16.4531 17.7128 19.9247 183.745 42.9616 -531.513
lowerback 6.99753 -0.65083 -0.191488
upperback 18.5343 1.87215 0.386983
thorax 16.8597 1.89597 1.00534
lowerneck 8.57843 1.58183 -1.54456
upperneck -17.1258 2.30258 0.196622
head -6.64612 1.34992 0.111472
rclavicle -3.85642e-014 1.82882e-014
rhumerus -13.2276 0.611645 -91.1875
rradius 56.2591
rwrist -1.45087
rhand -19.2414 19.5009
rfingers 7.12502
rthumb 7.07209 -10.361
lclavicle -3.85642e-014 1.82882e-014
lhumerus -12.393 -2.9648 81.9636
lradius 45.2707
lwrist -18.0966
lhand -42.3156 -15.5139
lfingers 7.12502
lthumb -15.1992 13.9079
rfemur -3.76513 -3.98591 23.8405
rtibia 46.8619
rfoot -33.8775 10.4417
rtoes -20.2685
lfemur -36.6955 10.4956 -1.30618
ltibia 40.9201
lfoot 4.33139 3.79763
ltoes -22.5048
79
root -16.4454 17.7268 19.8363 184.02 42.8423 -531.463
lowerback 7.24307 -0.624926 -0.0453547
upperback 18.5972 1.94472 0.362884
thorax 16.7911 1.96972 0.899284
lowerneck 8.58451 1.44184 -1.5418
upperneck -17.2707 2.14767 0.356217
head -6.69377 1.2659 0.173632
rclavicle 7.67309e-014 -1.66979e-014
rhumerus -13.2052 0.227484 -91.1443
rradius 56.4972
rwrist -1.48538
rhand -19.3218 19.5123
rfingers 7.12502
rthumb 6.99455 -10.3521
lclavicle 7.67309e-014 -1.66979e-014
lhumerus -12.1955 -3.2554 81.9731
lradius 45.9533
lwrist -17.9546
lhand -42.3893 -15.4349
lfingers 7.12502
lthumb -15.2702 13.9815
rfemur -3.62055 -3.97622 23.6792
rtibia 46.5267
rfoot -33.7018 10.5662
rtoes -20.5717
lfemur -37.0551 10.5961 -1.56453
ltibia 41.3856
lfoot 4.10685 3.65636
ltoes -22.6449
80
root -16.4374 17.7406 19.7472 184.309 42.7295 -531.436
lowerback 7.47632 -0.598201 0.0648058
upperback 18.6479 2.01426 0.346004
thorax 16.7139 2.03405 0.81997
lowerneck 8.58952 1.29754 -1.54633
upperneck -17.4193 1.9832 0.499934
head -6.74199 1.17907 0.232936
rclavicle -3.61788e-014 2.26615e-014
rhumerus -13.203 -0.0795031 -91.0868
rradius 56.7847
rwrist -1.51597
rhand -19.4401 19.42
rfingers 7.12502
rthumb 6.88036 -10.4482
lclavicle -3.61788e-014 2.26615e-014
lhumerus -12.0115 -3.49296 81.9958
lradius 46.6549
lwrist -17.8322
lhand -42.4256 -15.3169
lfingers 7.12502
lthumb -15.3051 14.0968
rfemur -3.50257 -3.97042 23.4978
rtibia 46.1771
rfoot -33.4952 10.6869
rtoes -20.7509
lfemur -37.4314 10.6703 -1.82529
ltibia 41.8424
lfoot 3.88009 3.55407
ltoes -22.4692
81
root -16.4293 17.7565 19.6572 184.585 42.6103 -531.384
lowerback 7.7346 -0.573611 0.200235
upperback 18.7068 2.08597 0.324168
thorax 16.6335 2.10552 0.720711
lowerneck 8.59078 1.15256 -1.51946
upperneck -17.5444 1.82733 0.673904
head -6.78184 1.09128 0.296436
rclavicle -1.08536e-013 7.79236e-014
rhumerus -13.2261 -0.376569 -91.0473
rradius 57.117
rwrist -1.60729
rhand -19.5703 19.3201
rfingers 7.12502
rthumb 6.7546 -10.5521
lclavicle -1.08536e-013 7.79236e-014
lhumerus -11.8357 -3.70829 82.0056
lradius 47.3495
lwrist -17.7561
lhand -42.4332 -15.2507
lfingers 7.12502
lthumb -15.3125 14.1624
rfemur -3.33185 -3.97635 23.3321
rtibia 45.7993
rfoot -33.2874 10.8622
rtoes -20.927
lfemur -37.7685 10.745 -2.06598
ltibia 42.2936
lfoot 3.64949 3.4357
ltoes -22.4214
